<svg width="500" height="500" viewBox="0 0 500 500" fill="none" xmlns="http://www.w3.org/2000/svg">
<path d="M448.611 392.944L453.463 120.98C453.498 118.995 452.107 117.292 450.144 116.991C436.9 114.956 387.625 107.864 354.137 109.504C320.846 111.135 273.456 124.495 259.059 128.754C256.232 129.591 253.239 129.614 250.398 128.827C235.319 124.65 184.27 111.151 148.612 109.504C112.857 107.853 63.1491 114.958 49.855 116.992C47.892 117.293 46.5008 118.995 46.5361 120.981L51.3886 393.967C51.4332 396.478 53.7257 398.342 56.191 397.864C71.3575 394.919 119.906 386.186 154.612 387.788C189.46 389.397 234.928 403.686 249.805 408.649C253.033 409.726 256.468 409.743 259.704 408.689C274.823 403.762 321.328 389.395 354.137 387.788C386.282 386.213 429.574 394.044 443.788 396.843C446.26 397.329 448.566 395.462 448.611 392.944Z" fill="black"/>
<path d="M81.3418 377.521V115.064C81.3418 113.03 82.8665 111.323 84.8901 111.113C97.1334 109.845 138.516 105.926 168.75 107.493C196.357 108.924 232.219 115.058 248.046 117.96C252.768 118.826 256.132 122.966 256.096 127.767L254.113 389.445C254.113 389.445 202.02 379.501 165.75 376.334C136.888 373.814 99.1994 379.351 86.0847 381.515C83.6157 381.923 81.3418 380.023 81.3418 377.521Z" fill="#9D9D9D"/>
<path d="M431.158 377.521V115.064C431.158 113.03 429.633 111.323 427.61 111.113C415.367 109.845 373.984 105.926 343.75 107.493C316.143 108.924 280.281 115.058 264.454 117.96C259.732 118.826 256.368 122.966 256.404 127.767L258.387 389.445C258.387 389.445 310.48 379.501 346.75 376.334C375.612 373.814 413.301 379.351 426.415 381.515C428.884 381.923 431.158 380.023 431.158 377.521Z" fill="#9D9D9D"/>
<path d="M72.3418 369.782V107.036C72.3418 105.013 73.8279 103.313 75.8381 103.088C88.6995 101.645 134.22 96.9088 164.75 98.4914C193.459 99.9797 233.571 112.124 249.375 117.236C253.451 118.555 256.136 122.373 256.104 126.657L254.113 389.443C254.113 389.443 199.02 373.499 162.75 370.332C133.335 367.764 90.6374 372.193 76.8291 373.791C74.4322 374.068 72.3418 372.194 72.3418 369.782Z" fill="white"/>
<path d="M435.158 368.815V106.064C435.158 104.03 433.633 102.323 431.61 102.113C419.367 100.845 377.984 96.926 347.75 98.4933C319.041 99.9816 278.929 112.125 263.125 117.238C259.049 118.557 256.364 122.375 256.396 126.659L258.387 389.445C258.387 389.445 313.48 373.501 349.75 370.334C378.88 367.791 417.673 371.437 430.688 372.831C433.076 373.087 435.158 371.217 435.158 368.815Z" fill="white"/>
<path d="M439.158 360.175V102.967C439.158 100.975 437.716 99.2918 435.74 99.0326C423.12 97.3768 378.295 91.9102 347.75 93.4936C317.252 95.0746 273.887 112.172 260.463 117.747C257.819 118.845 254.862 118.811 252.239 117.664C238.244 111.546 191.442 92.0922 158.727 90.4936C125.923 88.8907 79.116 95.9115 66.4036 97.9516C64.4809 98.2602 63.1113 99.9166 63.1113 101.864V361.827C63.1113 364.224 65.1776 366.092 67.5612 365.831C81.7487 364.282 126.85 359.777 158.727 361.335C191.652 362.943 238.845 382.638 252.504 388.622C254.974 389.703 257.738 389.799 260.269 388.87C274.579 383.617 324.718 365.943 355.75 364.335C385.271 362.804 422.709 363.793 435.026 364.191C437.295 364.264 439.158 362.445 439.158 360.175Z" fill="#F7E017"/>
<path d="M257.96 144.086L264.32 402.3C264.375 404.547 262.569 406.398 260.321 406.398H255.6C253.352 406.398 251.546 404.547 251.601 402.3L257.96 144.086Z" fill="black"/>
<path d="M170.98 260.15C175.259 267.179 180.826 272.345 190.672 272.345C198.944 272.345 204.227 268.186 204.227 262.44C204.227 255.553 198.799 253.114 189.694 249.108L184.704 246.954C170.299 240.78 160.729 233.046 160.729 216.695C160.729 201.634 172.137 190.168 189.964 190.168C202.656 190.168 211.781 194.612 218.356 206.247L202.811 216.288C199.389 210.114 195.696 207.682 189.964 207.682C184.117 207.682 180.411 211.414 180.411 216.288C180.411 222.313 184.12 224.752 192.685 228.483L197.676 230.634C214.637 237.951 224.213 245.411 224.213 262.182C224.213 280.263 210.095 290.168 191.134 290.168C172.595 290.168 160.618 281.28 154.757 269.631L170.98 260.15ZM100.462 261.89C103.598 267.487 106.451 272.22 113.309 272.22C119.868 272.22 124.005 269.638 124.005 259.6V191.315H143.967V259.872C143.967 280.666 131.848 290.131 114.159 290.131C98.1761 290.131 88.9201 281.809 84.2129 271.787L100.462 261.89Z" fill="black"/>
<path d="M356.18 282.795H359.18V279.795V252.253H386.575H389.575V249.253V231.089V228.089H386.575H359.18V200.547V197.547H356.18H337.356H334.356V200.547V228.089H306.961H303.961V231.089V249.253V252.253H306.961H334.356V279.795V282.795H337.356H356.18Z" fill="black" stroke="white" stroke-width="6"/>
</svg>
