<svg width="50" height="50" viewBox="0 0 630 630" fill="none"
     xmlns="http://www.w3.org/2000/svg">
  <g clip-path="url(#clip0_152_39)">
    <path d="M630 0H0V630H630V0Z" fill="#F7DF1E"/>
    <path
      d="M283.201 492.191C295.891 512.911 312.401 528.141 341.601 528.141C366.131 528.141 381.801 515.881 381.801 498.941C381.801 478.641 365.701 471.451 338.701 459.641L323.901 453.291C281.181 435.091 252.801 412.291 252.801 364.091C252.801 319.691 286.631 285.891 339.501 285.891C377.141 285.891 404.201 298.991 423.701 333.291L377.601 362.891C367.451 344.691 356.501 337.521 339.501 337.521C322.161 337.521 311.171 348.521 311.171 362.891C311.171 380.651 322.171 387.841 347.571 398.841L362.371 405.181C412.671 426.751 441.071 448.741 441.071 498.181C441.071 551.481 399.201 580.681 342.971 580.681C287.991 580.681 252.471 554.481 235.091 520.141L283.201 492.191ZM74.0709 497.321C83.3709 513.821 91.8309 527.771 112.171 527.771C131.621 527.771 143.891 520.161 143.891 490.571V289.271H203.091V491.371C203.091 552.671 167.151 580.571 114.691 580.571C67.2909 580.571 39.8409 556.041 25.8809 526.496L74.0709 497.321Z"
      fill="black"/>
    <path
      d="M549.122 507.285H553.122V503.285V453.33H602.572H606.572V449.33V417.241V413.241H602.572H553.122V363.285V359.285H549.122H516.022H512.022V363.285V413.241H462.572H458.572V417.241V449.33V453.33H462.572H512.022V503.285V507.285H516.022H549.122Z"
      fill="black" stroke="black" stroke-width="8"/>
  </g>
  <defs>
    <clipPath id="clip0_152_39">
      <rect width="630" height="630" fill="white"/>
    </clipPath>
  </defs>
</svg>
